<svg width="151" height="56" viewBox="0 0 151 56" fill="none" xmlns="http://www.w3.org/2000/svg">
<g clip-path="url(#clip0)" filter="url(#filter0_d)">
<path d="M74.39 8.36752L69.5 11.9975H81.5L76.61 8.36752C76.2891 8.12888 75.8999 8 75.5 8C75.1001 8 74.7109 8.12888 74.39 8.36752V8.36752Z" fill="black" fill-opacity="0.75"/>
<rect x="10" y="11.9976" width="131" height="32" rx="8" fill="black" fill-opacity="0.75"/>
<path d="M30.7812 32.9976H29.4141L27.7734 30.2495C27.623 29.9943 27.4772 29.7778 27.3359 29.6001C27.1947 29.4178 27.0488 29.2697 26.8984 29.1558C26.7526 29.0418 26.5931 28.9598 26.4199 28.9097C26.2513 28.855 26.0599 28.8276 25.8457 28.8276H24.9023V32.9976H23.7539V23.1948H26.6797C27.1081 23.1948 27.5023 23.2495 27.8623 23.3589C28.2269 23.4637 28.5413 23.6255 28.8057 23.8442C29.0745 24.063 29.2842 24.3364 29.4346 24.6646C29.585 24.9881 29.6602 25.3687 29.6602 25.8062C29.6602 26.1479 29.6077 26.4624 29.5029 26.7495C29.4027 27.0321 29.2568 27.285 29.0654 27.5083C28.8786 27.7316 28.6507 27.923 28.3818 28.0825C28.1175 28.2375 27.819 28.3582 27.4863 28.4448V28.4722C27.6504 28.5451 27.7917 28.6294 27.9102 28.7251C28.0332 28.8162 28.1494 28.9256 28.2588 29.0532C28.3682 29.1808 28.4753 29.3267 28.5801 29.4907C28.6895 29.6502 28.8102 29.8371 28.9424 30.0513L30.7812 32.9976ZM24.9023 24.2339V27.7886H26.4609C26.748 27.7886 27.0124 27.7453 27.2539 27.6587C27.5 27.5721 27.7119 27.4491 27.8896 27.2896C28.0674 27.1255 28.2064 26.9272 28.3066 26.6948C28.4069 26.4578 28.457 26.1935 28.457 25.9019C28.457 25.3778 28.2861 24.9699 27.9443 24.6782C27.6071 24.382 27.1172 24.2339 26.4746 24.2339H24.9023ZM37.3002 29.7778H32.3578C32.376 30.5571 32.5857 31.1587 32.9867 31.5825C33.3878 32.0063 33.9392 32.2183 34.641 32.2183C35.4294 32.2183 36.154 31.9585 36.8148 31.439V32.4917C36.1996 32.9383 35.3861 33.1616 34.3744 33.1616C33.3855 33.1616 32.6085 32.8449 32.0434 32.2114C31.4783 31.5734 31.1957 30.6779 31.1957 29.5249C31.1957 28.4357 31.5033 27.5493 32.1186 26.8657C32.7383 26.1776 33.5063 25.8335 34.4223 25.8335C35.3383 25.8335 36.0469 26.1297 36.5482 26.7222C37.0495 27.3146 37.3002 28.1372 37.3002 29.1899V29.7778ZM36.1518 28.8276C36.1472 28.1805 35.99 27.6769 35.6801 27.3169C35.3747 26.9569 34.9486 26.7769 34.4018 26.7769C33.8731 26.7769 33.4242 26.966 33.0551 27.3442C32.6859 27.7225 32.4581 28.217 32.3715 28.8276H36.1518ZM38.6785 32.7446V31.5415C39.2892 31.9927 39.9614 32.2183 40.6951 32.2183C41.6795 32.2183 42.1717 31.8901 42.1717 31.2339C42.1717 31.047 42.1284 30.8898 42.0418 30.7622C41.9598 30.63 41.8458 30.5138 41.7 30.4136C41.5587 30.3133 41.3901 30.2244 41.1941 30.147C41.0027 30.0649 40.7954 29.9806 40.5721 29.894C40.2622 29.771 39.9887 29.6479 39.7518 29.5249C39.5193 29.3973 39.3234 29.256 39.1639 29.1011C39.0089 28.9416 38.8904 28.7616 38.8084 28.561C38.7309 28.3605 38.6922 28.1258 38.6922 27.8569C38.6922 27.5288 38.7674 27.2394 38.9178 26.9888C39.0682 26.7336 39.2687 26.5216 39.5193 26.353C39.77 26.1799 40.0548 26.05 40.3738 25.9634C40.6974 25.8768 41.0301 25.8335 41.3719 25.8335C41.978 25.8335 42.5203 25.9383 42.9988 26.1479V27.2827C42.4839 26.9455 41.8914 26.7769 41.2215 26.7769C41.0118 26.7769 40.8227 26.8019 40.6541 26.8521C40.4855 26.8976 40.3396 26.9637 40.2166 27.0503C40.0981 27.1369 40.0047 27.2417 39.9363 27.3647C39.8725 27.4832 39.8406 27.6154 39.8406 27.7612C39.8406 27.9435 39.8725 28.0962 39.9363 28.2192C40.0047 28.3423 40.1027 28.4517 40.2303 28.5474C40.3579 28.6431 40.5128 28.7297 40.6951 28.8071C40.8774 28.8846 41.0848 28.9689 41.3172 29.0601C41.6271 29.1785 41.9051 29.3016 42.1512 29.4292C42.3973 29.5522 42.6069 29.6935 42.7801 29.853C42.9533 30.008 43.0854 30.188 43.1766 30.3931C43.2723 30.5981 43.3201 30.842 43.3201 31.1245C43.3201 31.4709 43.2426 31.7716 43.0877 32.0269C42.9373 32.2821 42.7345 32.494 42.4793 32.6626C42.2241 32.8312 41.9301 32.9565 41.5975 33.0386C41.2648 33.1206 40.9161 33.1616 40.5516 33.1616C39.8315 33.1616 39.2072 33.0226 38.6785 32.7446ZM48.3967 32.9292C48.1324 33.075 47.7837 33.1479 47.3508 33.1479C46.1249 33.1479 45.5119 32.4644 45.5119 31.0972V26.9546H44.3088V25.9976H45.5119V24.2886L46.633 23.9263V25.9976H48.3967V26.9546H46.633V30.8989C46.633 31.3683 46.7128 31.7033 46.8723 31.9038C47.0318 32.1043 47.2961 32.2046 47.6652 32.2046C47.9478 32.2046 48.1916 32.1271 48.3967 31.9722V32.9292ZM55.6539 32.9976H54.5328V31.8901H54.5055C54.0406 32.7378 53.3206 33.1616 52.3453 33.1616C50.6773 33.1616 49.8434 32.1681 49.8434 30.1812V25.9976H50.9576V30.0034C50.9576 31.48 51.5227 32.2183 52.6529 32.2183C53.1998 32.2183 53.6487 32.0177 53.9996 31.6167C54.3551 31.2111 54.5328 30.6825 54.5328 30.0308V25.9976H55.6539V32.9976ZM61.6738 27.1323C61.4779 26.9819 61.1953 26.9067 60.8262 26.9067C60.3477 26.9067 59.9466 27.1323 59.623 27.5835C59.304 28.0347 59.1445 28.6499 59.1445 29.4292V32.9976H58.0234V25.9976H59.1445V27.4399H59.1719C59.3314 26.9478 59.5752 26.5649 59.9033 26.2915C60.2314 26.0135 60.5983 25.8745 61.0039 25.8745C61.2956 25.8745 61.5189 25.9064 61.6738 25.9702V27.1323ZM68.0014 32.9976H66.8803V31.9038H66.8529C66.3653 32.7424 65.6475 33.1616 64.6996 33.1616C64.0023 33.1616 63.4555 32.9771 63.059 32.6079C62.6671 32.2388 62.4711 31.7489 62.4711 31.1382C62.4711 29.8302 63.2413 29.0692 64.7816 28.855L66.8803 28.561C66.8803 27.3716 66.3995 26.7769 65.4379 26.7769C64.5948 26.7769 63.8337 27.064 63.1547 27.6382V26.4897C63.8428 26.0522 64.6358 25.8335 65.5336 25.8335C67.1788 25.8335 68.0014 26.7039 68.0014 28.4448V32.9976ZM66.8803 29.4565L65.1918 29.689C64.6723 29.7619 64.2803 29.8918 64.016 30.0786C63.7517 30.2609 63.6195 30.5868 63.6195 31.0562C63.6195 31.3979 63.7403 31.6782 63.9818 31.897C64.2279 32.1112 64.5538 32.2183 64.9594 32.2183C65.5154 32.2183 65.9734 32.0246 66.3334 31.6372C66.698 31.2453 66.8803 30.7508 66.8803 30.1538V29.4565ZM73.8641 27.1323C73.6681 26.9819 73.3855 26.9067 73.0164 26.9067C72.5379 26.9067 72.1368 27.1323 71.8133 27.5835C71.4943 28.0347 71.3348 28.6499 71.3348 29.4292V32.9976H70.2137V25.9976H71.3348V27.4399H71.3621C71.5216 26.9478 71.7654 26.5649 72.0936 26.2915C72.4217 26.0135 72.7885 25.8745 73.1941 25.8745C73.4858 25.8745 73.7091 25.9064 73.8641 25.9702V27.1323ZM80.2711 31.9858H80.2438V36.2173H79.1227V25.9976H80.2438V27.228H80.2711C80.8225 26.2983 81.6292 25.8335 82.691 25.8335C83.5934 25.8335 84.2975 26.1479 84.8033 26.7769C85.3092 27.4012 85.5621 28.2397 85.5621 29.2925C85.5621 30.4637 85.2773 31.4025 84.7076 32.1089C84.138 32.8107 83.3587 33.1616 82.3697 33.1616C81.4628 33.1616 80.7633 32.7697 80.2711 31.9858ZM80.2438 29.1626V30.1401C80.2438 30.7189 80.4306 31.2111 80.8043 31.6167C81.1826 32.0177 81.6611 32.2183 82.2398 32.2183C82.9189 32.2183 83.4498 31.9585 83.8326 31.439C84.22 30.9194 84.4137 30.1971 84.4137 29.272C84.4137 28.4927 84.2337 27.882 83.8736 27.4399C83.5136 26.9979 83.026 26.7769 82.4107 26.7769C81.7591 26.7769 81.235 27.0047 80.8385 27.4604C80.442 27.9116 80.2438 28.479 80.2438 29.1626ZM92.4639 32.9976H91.3428V31.9038H91.3154C90.8278 32.7424 90.11 33.1616 89.1621 33.1616C88.4648 33.1616 87.918 32.9771 87.5215 32.6079C87.1296 32.2388 86.9336 31.7489 86.9336 31.1382C86.9336 29.8302 87.7038 29.0692 89.2441 28.855L91.3428 28.561C91.3428 27.3716 90.862 26.7769 89.9004 26.7769C89.0573 26.7769 88.2962 27.064 87.6172 27.6382V26.4897C88.3053 26.0522 89.0983 25.8335 89.9961 25.8335C91.6413 25.8335 92.4639 26.7039 92.4639 28.4448V32.9976ZM91.3428 29.4565L89.6543 29.689C89.1348 29.7619 88.7428 29.8918 88.4785 30.0786C88.2142 30.2609 88.082 30.5868 88.082 31.0562C88.082 31.3979 88.2028 31.6782 88.4443 31.897C88.6904 32.1112 89.0163 32.2183 89.4219 32.2183C89.9779 32.2183 90.4359 32.0246 90.7959 31.6372C91.1605 31.2453 91.3428 30.7508 91.3428 30.1538V29.4565ZM100.651 32.9976H99.5297V31.8081H99.5023C98.9828 32.7104 98.1807 33.1616 97.0961 33.1616C96.2165 33.1616 95.5124 32.8494 94.9838 32.2251C94.4597 31.5962 94.1977 30.7417 94.1977 29.6616C94.1977 28.5041 94.4893 27.5767 95.0727 26.8794C95.656 26.1821 96.433 25.8335 97.4037 25.8335C98.3653 25.8335 99.0648 26.2118 99.5023 26.9683H99.5297V22.6343H100.651V32.9976ZM99.5297 29.8325V28.8003C99.5297 28.2352 99.3428 27.7567 98.9691 27.3647C98.5954 26.9728 98.1215 26.7769 97.5473 26.7769C96.8637 26.7769 96.3259 27.0275 95.934 27.5288C95.5421 28.0301 95.3461 28.7228 95.3461 29.6069C95.3461 30.4136 95.5329 31.0516 95.9066 31.521C96.2849 31.9858 96.7908 32.2183 97.4242 32.2183C98.0486 32.2183 98.5544 31.9927 98.9418 31.5415C99.3337 31.0903 99.5297 30.5207 99.5297 29.8325ZM106.671 27.1323C106.475 26.9819 106.192 26.9067 105.823 26.9067C105.345 26.9067 104.943 27.1323 104.62 27.5835C104.301 28.0347 104.141 28.6499 104.141 29.4292V32.9976H103.02V25.9976H104.141V27.4399H104.169C104.328 26.9478 104.572 26.5649 104.9 26.2915C105.228 26.0135 105.595 25.8745 106.001 25.8745C106.292 25.8745 106.516 25.9064 106.671 25.9702V27.1323ZM110.913 33.1616C109.879 33.1616 109.052 32.8358 108.432 32.1841C107.817 31.5278 107.509 30.6597 107.509 29.5796C107.509 28.4038 107.83 27.4855 108.473 26.8247C109.115 26.1639 109.984 25.8335 111.077 25.8335C112.121 25.8335 112.934 26.1548 113.518 26.7974C114.106 27.4399 114.4 28.3309 114.4 29.4702C114.4 30.5868 114.083 31.4823 113.449 32.1567C112.821 32.8267 111.975 33.1616 110.913 33.1616ZM110.995 26.7769C110.275 26.7769 109.706 27.0229 109.286 27.5151C108.867 28.0028 108.657 28.6772 108.657 29.5386C108.657 30.368 108.869 31.022 109.293 31.5005C109.717 31.979 110.284 32.2183 110.995 32.2183C111.72 32.2183 112.276 31.9836 112.663 31.5142C113.055 31.0448 113.251 30.3771 113.251 29.5112C113.251 28.6362 113.055 27.9618 112.663 27.4878C112.276 27.0138 111.72 26.7769 110.995 26.7769ZM113.217 23.0308C113.217 23.5093 113.108 23.9012 112.889 24.2065C112.67 24.5073 112.374 24.6577 112 24.6577C111.677 24.6577 111.307 24.5392 110.893 24.3022C110.542 24.1063 110.271 24.0083 110.079 24.0083C109.678 24.0083 109.478 24.2658 109.478 24.7808H108.835C108.835 24.2931 108.945 23.9035 109.163 23.6118C109.382 23.3156 109.687 23.1675 110.079 23.1675C110.376 23.1675 110.715 23.286 111.098 23.5229C111.435 23.7235 111.727 23.8237 111.973 23.8237C112.356 23.8237 112.547 23.5594 112.547 23.0308H113.217ZM121.917 29.7778H116.974C116.992 30.5571 117.202 31.1587 117.603 31.5825C118.004 32.0063 118.556 32.2183 119.257 32.2183C120.046 32.2183 120.77 31.9585 121.431 31.439V32.4917C120.816 32.9383 120.003 33.1616 118.991 33.1616C118.002 33.1616 117.225 32.8449 116.66 32.2114C116.095 31.5734 115.812 30.6779 115.812 29.5249C115.812 28.4357 116.12 27.5493 116.735 26.8657C117.355 26.1776 118.123 25.8335 119.039 25.8335C119.955 25.8335 120.663 26.1297 121.165 26.7222C121.666 27.3146 121.917 28.1372 121.917 29.1899V29.7778ZM120.768 28.8276C120.764 28.1805 120.606 27.6769 120.296 27.3169C119.991 26.9569 119.565 26.7769 119.018 26.7769C118.49 26.7769 118.041 26.966 117.671 27.3442C117.302 27.7225 117.074 28.217 116.988 28.8276H120.768ZM123.295 32.7446V31.5415C123.906 31.9927 124.578 32.2183 125.312 32.2183C126.296 32.2183 126.788 31.8901 126.788 31.2339C126.788 31.047 126.745 30.8898 126.658 30.7622C126.576 30.63 126.462 30.5138 126.316 30.4136C126.175 30.3133 126.007 30.2244 125.811 30.147C125.619 30.0649 125.412 29.9806 125.188 29.894C124.879 29.771 124.605 29.6479 124.368 29.5249C124.136 29.3973 123.94 29.256 123.78 29.1011C123.625 28.9416 123.507 28.7616 123.425 28.561C123.347 28.3605 123.309 28.1258 123.309 27.8569C123.309 27.5288 123.384 27.2394 123.534 26.9888C123.685 26.7336 123.885 26.5216 124.136 26.353C124.386 26.1799 124.671 26.05 124.99 25.9634C125.314 25.8768 125.646 25.8335 125.988 25.8335C126.594 25.8335 127.137 25.9383 127.615 26.1479V27.2827C127.1 26.9455 126.508 26.7769 125.838 26.7769C125.628 26.7769 125.439 26.8019 125.271 26.8521C125.102 26.8976 124.956 26.9637 124.833 27.0503C124.715 27.1369 124.621 27.2417 124.553 27.3647C124.489 27.4832 124.457 27.6154 124.457 27.7612C124.457 27.9435 124.489 28.0962 124.553 28.2192C124.621 28.3423 124.719 28.4517 124.847 28.5474C124.974 28.6431 125.129 28.7297 125.312 28.8071C125.494 28.8846 125.701 28.9689 125.934 29.0601C126.243 29.1785 126.521 29.3016 126.768 29.4292C127.014 29.5522 127.223 29.6935 127.396 29.853C127.57 30.008 127.702 30.188 127.793 30.3931C127.889 30.5981 127.937 30.842 127.937 31.1245C127.937 31.4709 127.859 31.7716 127.704 32.0269C127.554 32.2821 127.351 32.494 127.096 32.6626C126.84 32.8312 126.547 32.9565 126.214 33.0386C125.881 33.1206 125.533 33.1616 125.168 33.1616C124.448 33.1616 123.824 33.0226 123.295 32.7446Z" fill="white"/>
</g>
<defs>
<filter id="filter0_d" x="0" y="0" width="151" height="55.9975" filterUnits="userSpaceOnUse" color-interpolation-filters="sRGB">
<feFlood flood-opacity="0" result="BackgroundImageFix"/>
<feColorMatrix in="SourceAlpha" type="matrix" values="0 0 0 0 0 0 0 0 0 0 0 0 0 0 0 0 0 0 127 0" result="hardAlpha"/>
<feOffset dy="2"/>
<feGaussianBlur stdDeviation="5"/>
<feColorMatrix type="matrix" values="0 0 0 0 0.352941 0 0 0 0 0.403922 0 0 0 0 0.415686 0 0 0 0.15 0"/>
<feBlend mode="normal" in2="BackgroundImageFix" result="effect1_dropShadow"/>
<feBlend mode="normal" in="SourceGraphic" in2="effect1_dropShadow" result="shape"/>
</filter>
<clipPath id="clip0">
<rect width="131" height="35.9975" fill="white" transform="translate(10 8)"/>
</clipPath>
</defs>
</svg>
