<svg width="16" height="16" viewBox="0 0 16 16" fill="none" xmlns="http://www.w3.org/2000/svg">
<path d="M2.64017 2.10983C2.49372 1.96339 2.25628 1.96339 2.10983 2.10983C1.96339 2.25628 1.96339 2.49372 2.10983 2.64017L4.73397 5.26429C3.47783 6.11885 2.54255 7.45538 2.21013 9.0484C2.16783 9.25114 2.29788 9.44979 2.50062 9.49209C2.70336 9.5344 2.90201 9.40434 2.94432 9.2016C3.24717 7.75024 4.11775 6.54718 5.27535 5.80567L6.46502 6.99534C5.80473 7.47208 5.375 8.24836 5.375 9.125C5.375 10.5747 6.55025 11.75 8 11.75C8.87664 11.75 9.65292 11.3203 10.1297 10.66L13.3598 13.8902C13.5063 14.0366 13.7437 14.0366 13.8902 13.8902C14.0366 13.7437 14.0366 13.5063 13.8902 13.3598L2.64017 2.10983ZM9.58958 10.1199C9.25801 10.6485 8.67005 11 8 11C6.96447 11 6.125 10.1605 6.125 9.125C6.125 8.45495 6.47647 7.86699 7.00511 7.53543L9.58958 10.1199ZM8.09261 6.5016L10.6234 9.03239C10.5757 7.65627 9.46873 6.54932 8.09261 6.5016ZM8.00001 5C7.57262 5 7.15362 5.05515 6.75064 5.15964L6.14835 4.55734C6.73512 4.35748 7.35864 4.25 8.00001 4.25C10.7701 4.25 13.2069 6.25484 13.7899 9.04839C13.8322 9.25113 13.7021 9.44978 13.4994 9.49209C13.2967 9.5344 13.098 9.40435 13.0557 9.20161C12.5431 6.74516 10.4042 5 8.00001 5Z" fill="#00718A"/>
</svg>
